<svg width="40" height="41" viewBox="0 0 40 41" fill="none" xmlns="http://www.w3.org/2000/svg">
<path d="M20 12.75C22.1808 12.75 24.2722 13.5929 25.8142 15.0931C27.3563 16.5934 28.2226 18.6283 28.2226 20.75C28.2226 22.8717 27.3563 24.9066 25.8142 26.4069C24.2722 27.9071 22.1808 28.75 20 28.75C17.8192 28.75 15.7278 27.9071 14.1858 26.4069C12.6437 24.9066 11.7774 22.8717 11.7774 20.75C11.7774 18.6283 12.6437 16.5934 14.1858 15.0931C15.7278 13.5929 17.8192 12.75 20 12.75ZM20 16.75C18.9096 16.75 17.8639 17.1714 17.0929 17.9216C16.3219 18.6717 15.8887 19.6891 15.8887 20.75C15.8887 21.8109 16.3219 22.8283 17.0929 23.5784C17.8639 24.3286 18.9096 24.75 20 24.75C21.0904 24.75 22.1361 24.3286 22.9071 23.5784C23.6781 22.8283 24.1113 21.8109 24.1113 20.75C24.1113 19.6891 23.6781 18.6717 22.9071 17.9216C22.1361 17.1714 21.0904 16.75 20 16.75ZM15.8887 40.75C15.3748 40.75 14.9431 40.39 14.8609 39.91L14.1003 34.61C12.8053 34.11 11.6952 33.43 10.6263 32.63L5.50774 34.65C5.0555 34.81 4.50048 34.65 4.2538 34.21L0.142521 27.29C-0.124712 26.85 -0.00137379 26.31 0.389198 26.01L4.7266 22.69L4.5827 20.75L4.7266 18.75L0.389198 15.49C-0.00137379 15.19 -0.124712 14.65 0.142521 14.21L4.2538 7.29C4.50048 6.85 5.0555 6.67 5.50774 6.85L10.6263 8.85C11.6952 8.07 12.8053 7.39 14.1003 6.89L14.8609 1.59C14.9431 1.11 15.3748 0.75 15.8887 0.75H24.1113C24.6252 0.75 25.0569 1.11 25.1391 1.59L25.8997 6.89C27.1947 7.39 28.3048 8.07 29.3737 8.85L34.4923 6.85C34.9445 6.67 35.4995 6.85 35.7462 7.29L39.8575 14.21C40.1247 14.65 40.0014 15.19 39.6108 15.49L35.2734 18.75L35.4173 20.75L35.2734 22.75L39.6108 26.01C40.0014 26.31 40.1247 26.85 39.8575 27.29L35.7462 34.21C35.4995 34.65 34.9445 34.83 34.4923 34.65L29.3737 32.65C28.3048 33.43 27.1947 34.11 25.8997 34.61L25.1391 39.91C25.0569 40.39 24.6252 40.75 24.1113 40.75H15.8887ZM18.4583 4.75L17.6977 9.97C15.2309 10.47 13.0519 11.75 11.4691 13.53L6.515 11.45L4.97327 14.05L9.31067 17.15C8.48842 19.49 8.48842 22.03 9.31067 24.35L4.95272 27.47L6.49445 30.07L11.4897 27.99C13.0725 29.75 15.2309 31.03 17.6771 31.51L18.4377 36.75H21.5623L22.3229 31.53C24.7691 31.03 26.9275 29.75 28.5103 27.99L33.5056 30.07L35.0473 27.47L30.6893 24.37C31.5116 22.03 31.5116 19.49 30.6893 17.15L35.0267 14.05L33.485 11.45L28.5309 13.53C26.9481 11.75 24.7691 10.47 22.3023 9.99L21.5417 4.75H18.4583Z" fill="white"/>
</svg>
