<svg width="40" height="40" viewBox="0 0 40 40" fill="none" xmlns="http://www.w3.org/2000/svg">
<path d="M8 8.42105C8 3.76842 11.58 0 16 0C20.42 0 24 3.76842 24 8.42105C24 13.0737 20.42 16.8421 16 16.8421C11.58 16.8421 8 13.0737 8 8.42105ZM20 29.8947C20 27.8737 21 25.9789 22.4 24.7158V24.2105C22.4 23.3895 22.54 22.6105 22.76 21.8526C20.7 21.3474 18.42 21.0526 16 21.0526C7.16 21.0526 0 24.8211 0 29.4737V33.6842H20V29.8947ZM40 30.1053V37.4737C40 38.7368 38.8 40 37.4 40H26.4C25.2 40 24 38.7368 24 37.2632V29.8947C24 28.6316 25.2 27.3684 26.4 27.3684V24.2105C26.4 21.2632 29.2 18.9474 32 18.9474C34.8 18.9474 37.6 21.2632 37.6 24.2105V27.3684C38.8 27.3684 40 28.6316 40 30.1053ZM35 24.2105C35 22.5263 33.6 21.4737 32 21.4737C30.4 21.4737 29 22.5263 29 24.2105V27.3684H35V24.2105Z" fill="white"/>
</svg>
