<svg width="98" height="65" viewBox="0 0 98 65" fill="none" xmlns="http://www.w3.org/2000/svg">
<path d="M10.992 47.888C10.992 49.776 9.152 50.72 5.472 50.72C4.672 50.72 4.192 50.32 4.032 49.52C3.904 48.688 3.84 47.536 3.84 46.064C3.84 42.96 4.464 39.12 5.712 34.544C7.792 26.992 10.016 22.544 12.384 21.2C12.704 21.008 13.056 20.912 13.44 20.912C13.824 20.912 14.016 21.536 14.016 22.784C14.016 24.032 13.952 25.136 13.824 26.096C13.568 28.016 13.104 30.496 12.432 33.536C11.792 36.576 11.472 38.368 11.472 38.912L10.992 47.888ZM14.256 34.976C14.256 34.56 14.48 34.288 14.928 34.16C15.408 34.032 16 33.92 16.704 33.824C17.408 33.696 18.176 33.52 19.008 33.296C19.84 33.072 20.608 32.656 21.312 32.048C22.944 30.64 23.76 28.288 23.76 24.992C23.76 22.88 23.04 21.264 21.6 20.144C20.192 19.024 18.144 18.464 15.456 18.464C12.8 18.464 10.304 19.024 7.968 20.144C7.104 20.56 6.32 20.944 5.616 21.296C4.944 21.648 4.32 21.824 3.744 21.824C3.168 21.824 2.88 21.648 2.88 21.296C2.88 20.752 3.408 19.856 4.464 18.608C5.52 17.456 7.184 16.384 9.456 15.392C11.76 14.4 14.176 13.904 16.704 13.904C21.472 13.872 25.184 14.992 27.84 17.264C30.144 19.248 31.296 21.824 31.296 24.992C31.296 28.128 30.16 30.944 27.888 33.44C25.616 35.904 22.768 37.136 19.344 37.136C15.952 37.136 14.256 36.416 14.256 34.976ZM34.8626 48.896C34.8626 49.792 34.2226 50.24 32.9426 50.24C30.9266 50.24 29.5506 49.856 28.8146 49.088C28.0786 48.288 27.7106 46.96 27.7106 45.104C27.7426 42.224 28.5266 37.616 30.0626 31.28C31.6306 24.944 33.1026 20.24 34.4786 17.168C34.8306 16.368 35.3266 15.616 35.9666 14.912C36.6066 14.176 37.4546 13.808 38.5106 13.808C38.9586 13.808 39.3266 14.08 39.6146 14.624C39.9346 15.168 40.0946 15.792 40.0946 16.496C40.0946 17.2 39.9666 18.256 39.7106 19.664C39.4546 21.04 39.1346 22.624 38.7506 24.416C38.3666 26.208 37.9346 28.144 37.4546 30.224C35.7266 38.128 34.8626 44.352 34.8626 48.896ZM65.2065 42.128C65.2065 43.792 65.5745 44.624 66.3105 44.624C67.1105 44.624 68.5025 43.632 70.4865 41.648C70.9985 41.136 71.5425 40.512 72.1185 39.776C72.6945 39.04 73.1425 38.672 73.4625 38.672C74.1025 38.672 74.4225 39.248 74.4225 40.4C74.4545 41.52 74.1345 42.656 73.4625 43.808C72.7905 44.928 71.9105 45.968 70.8225 46.928C69.7665 47.856 68.5825 48.624 67.2705 49.232C65.9585 49.84 64.6785 50.144 63.4305 50.144C61.5425 50.144 60.2305 49.68 59.4945 48.752C58.7905 47.792 58.4385 46.688 58.4385 45.44C58.4385 44.192 58.5505 42.96 58.7745 41.744C59.1585 39.824 60.2785 36.112 62.1345 30.608C62.9985 27.984 63.4305 26.016 63.4305 24.704C63.4305 23.392 63.1745 22.352 62.6625 21.584C62.1825 20.816 61.4305 20.432 60.4065 20.432C59.4145 20.432 58.4385 20.784 57.4785 21.488C56.5185 22.16 55.6225 23.056 54.7905 24.176C53.2865 26.128 51.9425 28.688 50.7585 31.856C49.6065 34.992 48.8545 37.712 48.5025 40.016C49.1105 42.96 49.4145 44.88 49.4145 45.776C49.4145 47.632 48.7585 48.88 47.4465 49.52C46.8385 49.808 46.2465 50.08 45.6705 50.336C45.1265 50.592 44.5345 50.72 43.8945 50.72C42.2945 50.72 41.4945 49.2 41.4945 46.16C41.4945 43.088 42.3425 37.104 44.0385 28.208C44.6465 25.008 44.9505 23.216 44.9505 22.832C44.9505 20.24 44.2945 18.944 42.9825 18.944C42.5345 18.944 42.1185 19.072 41.7345 19.328C41.3825 19.584 41.0145 19.856 40.6305 20.144C40.2785 20.432 39.9105 20.704 39.5265 20.96C39.1425 21.216 38.6945 21.344 38.1825 21.344C37.7025 21.344 37.4625 20.912 37.4625 20.048C37.4625 18.288 38.2785 16.848 39.9105 15.728C41.4785 14.576 43.3825 14 45.6225 14C48.7585 14 50.5185 15.536 50.9025 18.608C51.0305 19.504 51.0785 20.48 51.0465 21.536V21.872C52.2625 19.536 53.7185 17.632 55.4145 16.16C57.1425 14.656 59.1425 13.904 61.4145 13.904C64.5505 13.904 66.8225 14.736 68.2305 16.4C71.1745 19.952 71.0305 25.808 67.7985 33.968C67.1585 35.632 66.5665 37.168 66.0225 38.576C65.4785 39.984 65.2065 41.168 65.2065 42.128ZM85.674 28.16C86.122 26.752 86.842 26.048 87.834 26.048C88.73 26.08 89.578 26.72 90.378 27.968C91.178 29.184 91.578 30.128 91.578 30.8C91.514 32.112 91.114 34.208 90.378 37.088C89.642 39.936 88.602 43.648 87.258 48.224C89.37 46.592 91.45 44.464 93.498 41.84C94.202 40.944 94.794 40.224 95.274 39.68C95.786 39.104 96.202 38.816 96.522 38.816C96.97 38.816 97.194 39.328 97.194 40.352C97.194 42.368 96.058 44.72 93.786 47.408C91.546 50.096 88.794 52.192 85.53 53.696C85.146 54.976 84.73 56.192 84.282 57.344C83.834 58.496 83.258 59.504 82.554 60.368C81.018 62.224 78.682 63.152 75.546 63.152C73.434 63.152 71.626 62.544 70.122 61.328C68.65 60.112 67.914 58.592 67.914 56.768C67.914 55.776 68.234 54.992 68.874 54.416C69.546 53.84 70.458 53.376 71.61 53.024C72.762 52.672 74.106 52.368 75.642 52.112C77.21 51.856 78.874 51.536 80.634 51.152C80.794 50.608 80.922 50.08 81.018 49.568C81.146 49.024 81.274 48.48 81.402 47.936C79.642 49.568 77.482 50.384 74.922 50.384C72.394 50.384 70.442 49.68 69.066 48.272C67.69 46.864 67.018 45.152 67.05 43.136C67.05 37.696 68.858 33.408 72.474 30.272C74.97 28.128 77.562 27.056 80.25 27.056C81.178 27.056 82.17 27.168 83.226 27.392C84.314 27.616 85.13 27.872 85.674 28.16ZM74.106 41.552C74.106 44.016 75.018 45.248 76.842 45.248C77.866 45.248 78.906 44.864 79.962 44.096C81.018 43.328 81.866 42.08 82.506 40.352C82.986 38.112 83.482 36.048 83.994 34.16C84.538 32.272 84.906 30.96 85.098 30.224C82.41 30.576 79.898 31.776 77.562 33.824C75.258 35.872 74.106 38.448 74.106 41.552ZM79.146 55.568C77.994 55.792 76.986 55.968 76.122 56.096C75.258 56.224 74.538 56.336 73.962 56.432C73.418 56.528 73.002 56.64 72.714 56.768C72.458 56.896 72.33 57.104 72.33 57.392C72.33 57.968 72.682 58.464 73.386 58.88C74.122 59.296 74.842 59.488 75.546 59.456C76.762 59.456 77.962 58.16 79.146 55.568Z" fill="white"/>
</svg>
