<svg width="40" height="40" viewBox="0 0 40 40" fill="none" xmlns="http://www.w3.org/2000/svg">
<path d="M28 31V35H0V31C0 31 0 23 14 23C28 23 28 31 28 31ZM21 12.0001C21 10.6156 20.5895 9.26224 19.8203 8.1111C19.0511 6.95996 17.9579 6.06276 16.6788 5.53295C15.3997 5.00314 13.9922 4.86451 12.6344 5.13461C11.2765 5.4047 10.0292 6.07139 9.05025 7.05035C8.07129 8.02931 7.4046 9.27659 7.1345 10.6345C6.86441 11.9923 7.00303 13.3998 7.53284 14.6789C8.06266 15.9579 8.95986 17.0512 10.111 17.8203C11.2622 18.5895 12.6155 19.0001 14 19.0001C15.8565 19.0001 17.637 18.2626 18.9497 16.9498C20.2625 15.6371 21 13.8566 21 12.0001ZM27.88 23C29.1095 23.9515 30.1155 25.1609 30.8274 26.543C31.5392 27.9252 31.9394 29.4465 32 31V35H40V31C40 31 40 23.74 27.88 23ZM26 5.00011C24.6234 4.99244 23.277 5.40402 22.14 6.1801C23.3549 7.87757 24.0081 9.91266 24.0081 12.0001C24.0081 14.0875 23.3549 16.1226 22.14 17.8201C23.277 18.5961 24.6234 19.0077 26 19.0001C27.8565 19.0001 29.637 18.2626 30.9497 16.9498C32.2625 15.6371 33 13.8566 33 12.0001C33 10.1436 32.2625 8.3631 30.9497 7.05035C29.637 5.7376 27.8565 5.00011 26 5.00011Z" fill="white"/>
</svg>
